<?xml version="1.0" standalone="no"?>
<!DOCTYPE svg PUBLIC "-//W3C//DTD SVG 20010904//EN"
 "http://www.w3.org/TR/2001/REC-SVG-20010904/DTD/svg10.dtd">
<svg version="1.0" xmlns="http://www.w3.org/2000/svg"
 width="300.000000pt" height="300.000000pt" viewBox="0 0 300.000000 300.000000"
 preserveAspectRatio="xMidYMid meet">

<g transform="translate(0.000000,300.000000) scale(0.100000,-0.100000)"
fill="#000000" stroke="none">
<path d="M1975 2511 c-16 -10 -55 -44 -85 -75 l-54 -56 -289 0 c-245 0 -293
-2 -319 -16 -17 -9 -104 -90 -194 -180 -178 -178 -184 -188 -184 -299 0 -81
24 -125 78 -145 22 -9 44 -18 47 -22 4 -4 -160 -174 -364 -379 -401 -402 -391
-389 -391 -502 0 -72 20 -121 57 -140 49 -24 170 -59 194 -55 19 2 28 -5 44
-37 19 -38 26 -42 120 -74 118 -40 132 -39 200 21 30 26 50 38 53 30 10 -31
42 -55 105 -77 110 -40 127 -37 213 46 l73 72 29 -25 c37 -31 111 -52 154 -44
27 5 116 89 480 453 246 247 452 461 458 476 5 16 10 51 10 79 l0 52 164 165
c91 91 170 179 175 194 6 16 11 86 11 157 0 182 25 163 -380 294 -179 58 -337
106 -350 106 -14 0 -38 -9 -55 -19z m405 -149 l315 -107 3 -133 3 -134 -152
-154 c-84 -84 -156 -151 -160 -148 -5 3 -9 28 -9 55 0 36 -4 49 -12 47 -9 -3
-14 -45 -18 -144 -3 -80 -10 -147 -17 -159 -6 -11 -204 -212 -440 -447 -289
-289 -435 -428 -449 -428 -32 0 -88 21 -101 38 -15 19 -17 71 -4 105 5 14 84
100 175 191 91 92 166 171 166 176 0 28 -41 -6 -197 -163 -123 -123 -173 -181
-177 -203 -9 -40 -186 -214 -218 -214 -24 0 -106 28 -125 43 -9 6 -13 37 -13
90 l0 81 225 226 c202 202 243 250 217 250 -4 0 -110 -102 -235 -226 -159
-157 -229 -234 -233 -253 -4 -18 -38 -60 -90 -112 l-84 -83 -72 23 c-117 37
-118 38 -118 128 l0 77 260 261 c143 143 260 266 260 273 0 6 -5 12 -11 12
-20 0 -529 -522 -536 -549 -7 -32 -51 -81 -73 -81 -28 0 -144 42 -163 59 -16
13 -18 28 -15 93 l3 78 558 558 c306 306 557 563 557 570 0 29 -34 3 -180
-144 l-155 -156 -67 22 c-82 26 -91 40 -86 132 l4 69 170 170 170 169 288 0
c331 0 319 -3 411 90 43 43 66 60 85 59 14 0 167 -49 340 -107z"/>
</g>
</svg>
