<?xml version="1.0" standalone="no"?>
<!DOCTYPE svg PUBLIC "-//W3C//DTD SVG 20010904//EN"
 "http://www.w3.org/TR/2001/REC-SVG-20010904/DTD/svg10.dtd">
<svg version="1.0" xmlns="http://www.w3.org/2000/svg"
 width="300.000000pt" height="300.000000pt" viewBox="0 0 300.000000 300.000000"
 preserveAspectRatio="xMidYMid meet">

<g transform="translate(0.000000,300.000000) scale(0.100000,-0.100000)"
fill="#000000" stroke="none">
<path d="M1960 2509 c-14 -5 -80 -65 -148 -132 l-122 -122 -205 -5 -205 -5
-166 -165 c-91 -91 -170 -173 -176 -184 -5 -10 -12 -53 -15 -95 l-6 -77 -278
-93 c-225 -74 -283 -97 -299 -118 -17 -22 -20 -40 -20 -132 0 -85 4 -110 18
-128 19 -26 177 -83 226 -83 17 0 104 25 194 54 l162 54 0 -64 c0 -36 7 -82
16 -105 l17 -40 -146 -147 -145 -147 -7 -58 c-10 -79 -1 -134 26 -163 25 -27
158 -74 208 -74 32 0 51 17 212 176 l177 176 201 -67 c143 -47 209 -65 229
-60 19 4 120 98 324 303 163 163 301 307 307 319 6 12 11 45 11 74 l0 53 154
155 c84 86 159 167 166 180 16 31 25 171 15 247 l-7 59 -196 198 c-109 109
-209 205 -224 213 -32 16 -257 19 -298 3z m469 -244 l196 -195 3 -105 c2 -59
1 -118 -3 -133 -6 -25 -279 -312 -297 -312 -4 0 -8 23 -8 50 0 38 -4 50 -15
50 -13 0 -15 -22 -15 -137 l0 -137 -292 -293 c-206 -206 -299 -293 -315 -293
-19 0 -371 116 -382 127 -3 2 12 20 32 41 l37 36 101 -33 c55 -18 103 -30 106
-28 12 12 -11 27 -75 48 -118 38 -117 29 -12 134 59 59 90 97 85 105 -5 8
-123 -103 -344 -324 -185 -185 -339 -336 -342 -336 -15 0 -153 51 -165 61 -10
8 -14 34 -14 82 l0 71 330 331 c344 345 358 363 305 387 -22 10 -72 -4 -388
-110 -199 -67 -375 -122 -392 -122 -16 0 -64 11 -106 25 -59 20 -78 31 -83 48
-9 35 -7 147 4 167 7 13 152 66 525 190 393 131 519 177 530 193 21 30 21 147
0 147 -11 0 -15 -16 -17 -67 l-3 -68 -210 -72 c-115 -39 -213 -72 -217 -72 -5
-1 -8 32 -8 72 l0 72 163 162 162 163 270 2 c232 3 270 5 270 18 0 11 -14 16
-48 20 l-48 5 114 113 114 112 128 0 129 0 195 -195z m-1095 -832 c3 -4 -19
-32 -50 -64 -42 -43 -61 -55 -77 -51 -16 4 -19 1 -15 -15 4 -16 -14 -41 -82
-108 -79 -78 -90 -86 -109 -76 -19 10 -21 20 -21 86 0 71 2 77 33 110 26 29
56 43 162 79 139 48 148 50 159 39z"/>
</g>
</svg>
