<?xml version="1.0" standalone="no"?>
<!DOCTYPE svg PUBLIC "-//W3C//DTD SVG 20010904//EN"
 "http://www.w3.org/TR/2001/REC-SVG-20010904/DTD/svg10.dtd">
<svg version="1.0" xmlns="http://www.w3.org/2000/svg"
 width="300.000000pt" height="300.000000pt" viewBox="0 0 300.000000 300.000000"
 preserveAspectRatio="xMidYMid meet">

<g transform="translate(0.000000,300.000000) scale(0.100000,-0.100000)"
fill="#000000" stroke="none">
<path d="M1815 2514 c-27 -10 -84 -59 -181 -154 l-141 -140 -332 0 c-262 0
-338 -3 -364 -14 -47 -21 -392 -373 -406 -415 -16 -50 -14 -167 5 -206 9 -20
29 -39 54 -50 31 -14 39 -24 45 -53 4 -22 19 -48 40 -66 33 -31 33 -31 37
-140 l3 -108 38 -32 37 -31 0 -79 c0 -77 1 -79 35 -112 30 -28 35 -39 35 -77
0 -29 8 -55 23 -78 21 -31 40 -39 372 -150 193 -65 366 -118 385 -118 19 -1
47 7 61 17 40 27 639 631 660 666 13 22 19 50 19 94 l0 63 177 179 c97 99 181
187 187 197 16 28 20 260 6 313 -10 39 -38 72 -218 253 -114 115 -225 218
-247 230 -34 18 -60 22 -165 24 -92 2 -135 -1 -165 -13z m511 -264 c113 -113
212 -219 220 -237 15 -34 19 -193 8 -252 -5 -24 -49 -74 -171 -196 -91 -92
-166 -159 -168 -152 -2 6 -6 31 -7 55 -2 23 -7 42 -13 42 -6 0 -12 -59 -15
-148 -5 -148 -5 -149 -35 -183 -76 -86 -629 -629 -641 -629 -35 0 -699 230
-711 246 -13 18 -19 104 -7 104 3 0 133 -43 288 -95 155 -52 288 -95 294 -95
7 0 12 6 12 14 0 9 -108 49 -322 121 -178 59 -329 112 -335 117 -15 12 -18
158 -3 158 5 0 151 -47 325 -105 173 -58 320 -105 325 -105 6 0 10 6 10 14 0
9 -114 52 -352 131 -194 65 -363 124 -375 131 -21 13 -23 22 -23 109 0 51 4
96 8 99 4 2 169 -49 366 -115 196 -65 362 -119 367 -119 5 0 9 6 9 14 0 10
-122 55 -394 146 -216 72 -402 137 -412 145 -16 11 -20 29 -22 110 -6 152 -4
155 111 272 55 57 108 103 117 103 9 0 110 -31 226 -70 115 -38 212 -70 217
-70 4 0 7 6 7 14 0 19 -398 156 -455 156 -22 0 -49 -21 -126 -96 -54 -53 -105
-111 -114 -129 -9 -20 -15 -61 -15 -104 0 -39 -4 -71 -10 -71 -24 0 -61 26
-66 47 -4 13 -4 53 -2 89 l4 65 187 187 187 187 433 5 c280 3 431 9 430 15 -2
6 -28 11 -58 13 -30 2 -55 6 -55 10 0 5 58 65 129 136 l129 128 146 -4 146 -3
206 -205z"/>
<path d="M1350 1840 l0 -151 -57 -61 c-32 -33 -66 -64 -75 -69 -13 -7 -71 8
-214 56 -108 36 -201 65 -206 65 -5 0 -8 -7 -6 -15 4 -23 383 -148 423 -140
20 3 51 26 87 63 85 87 89 99 86 259 -3 122 -5 138 -20 141 -17 3 -18 -9 -18
-148z"/>
</g>
</svg>
